<svg width="416" height="480" viewBox="0 0 416 480" fill="none" xmlns="http://www.w3.org/2000/svg">
<path d="M213 42.9218L208 40.035L203 42.9218L39.8251 137.131L34.8251 140.017V145.791V334.209V339.982L39.8251 342.869L203 437.078L208 439.965L213 437.078L376.175 342.869L381.175 339.982V334.209V145.791V140.017L376.175 137.131L213 42.9218ZM213 102.385L208 99.4979L203 102.385L91.3216 166.862L86.3216 169.749V175.523V304.478V310.251L91.3216 313.138L203 377.616L208 380.502L213 377.616L324.679 313.138L329.679 310.251V304.478V175.523V169.749L324.679 166.862L213 102.385ZM213.001 151.818L208.001 148.932L203.001 151.818L134.132 191.579L129.132 194.466V200.24V279.762V285.536L134.132 288.422L203.001 328.184L208.001 331.07L213.001 328.184L281.869 288.422L286.869 285.536V279.762V200.24V194.466L281.869 191.579L213.001 151.818ZM208 11.547L405.846 125.773V354.227L208 468.453L10.1538 354.227V125.773L208 11.547ZM208 63.129L361.175 151.564V328.435L208 416.871L54.8251 328.435V151.564L208 63.129ZM208 122.592L309.679 181.296V298.704L208 357.408L106.322 298.704V181.296L208 122.592ZM149.132 206.013L208.001 172.026L266.869 206.013V273.989L208.001 307.976L149.132 273.989V206.013Z" stroke="#7A45F7" stroke-width="20"/>
</svg>
