<svg width="40" height="40" viewBox="0 0 40 40" fill="none" xmlns="http://www.w3.org/2000/svg">
<path d="M20 3.33334C29.205 3.33334 36.6667 10.795 36.6667 20C36.6667 29.205 29.205 36.6667 20 36.6667C10.795 36.6667 3.33333 29.205 3.33333 20C3.33333 10.795 10.795 3.33334 20 3.33334ZM20 6.66668C16.4638 6.66668 13.0724 8.07143 10.5719 10.5719C8.07142 13.0724 6.66666 16.4638 6.66666 20C6.66666 23.5362 8.07142 26.9276 10.5719 29.4281C13.0724 31.9286 16.4638 33.3333 20 33.3333C23.5362 33.3333 26.9276 31.9286 29.4281 29.4281C31.9286 26.9276 33.3333 23.5362 33.3333 20C33.3333 16.4638 31.9286 13.0724 29.4281 10.5719C26.9276 8.07143 23.5362 6.66668 20 6.66668ZM20 10C20.4082 10.0001 20.8022 10.1499 21.1073 10.4212C21.4123 10.6925 21.6072 11.0663 21.655 11.4717L21.6667 11.6667V19.31L26.1783 23.8217C26.4772 24.1216 26.6508 24.5241 26.6637 24.9473C26.6766 25.3706 26.528 25.7829 26.2479 26.1005C25.9679 26.4181 25.5774 26.6172 25.1559 26.6573C24.7343 26.6975 24.3133 26.5757 23.9783 26.3167L23.8217 26.1783L18.8217 21.1783C18.5626 20.9191 18.3963 20.5817 18.3483 20.2183L18.3333 20V11.6667C18.3333 11.2246 18.5089 10.8007 18.8215 10.4882C19.134 10.1756 19.558 10 20 10Z" fill="#BF5DBB"/>
</svg>
