<svg width="40" height="40" viewBox="0 0 40 40" fill="none" xmlns="http://www.w3.org/2000/svg">
<path d="M20 3.75C20.3315 3.75 20.6495 3.8817 20.8839 4.11612C21.1183 4.35054 21.25 4.66848 21.25 5V7.08333H28.3333C28.6649 7.08333 28.9828 7.21503 29.2172 7.44945C29.4516 7.68387 29.5833 8.00181 29.5833 8.33333C29.5833 8.66485 29.4516 8.9828 29.2172 9.21722C28.9828 9.45164 28.6649 9.58333 28.3333 9.58333H21.25V18.75H24.1667C26.0453 18.75 27.847 19.4963 29.1753 20.8247C30.5037 22.153 31.25 23.9547 31.25 25.8333C31.25 27.712 30.5037 29.5136 29.1753 30.842C27.847 32.1704 26.0453 32.9167 24.1667 32.9167H21.25V35C21.25 35.3315 21.1183 35.6495 20.8839 35.8839C20.6495 36.1183 20.3315 36.25 20 36.25C19.6685 36.25 19.3505 36.1183 19.1161 35.8839C18.8817 35.6495 18.75 35.3315 18.75 35V32.9167H10C9.66848 32.9167 9.35054 32.785 9.11612 32.5506C8.8817 32.3161 8.75 31.9982 8.75 31.6667C8.75 31.3351 8.8817 31.0172 9.11612 30.7828C9.35054 30.5484 9.66848 30.4167 10 30.4167H18.75V21.25H15.8333C13.9547 21.25 12.153 20.5037 10.8247 19.1753C9.49628 17.847 8.75 16.0453 8.75 14.1667C8.75 12.288 9.49628 10.4864 10.8247 9.15799C12.153 7.82961 13.9547 7.08333 15.8333 7.08333H18.75V5C18.75 4.66848 18.8817 4.35054 19.1161 4.11612C19.3505 3.8817 19.6685 3.75 20 3.75ZM18.75 9.58333H15.8333C14.6178 9.58333 13.452 10.0662 12.5924 10.9258C11.7329 11.7853 11.25 12.9511 11.25 14.1667C11.25 15.3822 11.7329 16.548 12.5924 17.4076C13.452 18.2671 14.6178 18.75 15.8333 18.75H18.75V9.58333ZM21.25 21.25V30.4167H24.1667C25.3822 30.4167 26.548 29.9338 27.4076 29.0742C28.2671 28.2147 28.75 27.0489 28.75 25.8333C28.75 24.6178 28.2671 23.452 27.4076 22.5924C26.548 21.7329 25.3822 21.25 24.1667 21.25H21.25Z" fill="#358264"/>
</svg>
