<svg width="40" height="40" viewBox="0 0 40 40" fill="none" xmlns="http://www.w3.org/2000/svg">
<path d="M20 11.6666C20.9205 11.6666 21.6667 10.9205 21.6667 9.99998C21.6667 9.07951 20.9205 8.33331 20 8.33331C19.0795 8.33331 18.3333 9.07951 18.3333 9.99998C18.3333 10.9205 19.0795 11.6666 20 11.6666Z" fill="#3870CD"/>
<path d="M10 28.3333H30V31.6666H10V28.3333ZM16.6667 19.7166L21.32 24.3733L27.8733 17.815L30 20V13.3333H23.3333L25.5167 15.4583L21.3183 19.6566L16.6667 15L10 21.6666L12.3567 24.0233L16.6667 19.7166Z" fill="#3870CD"/>
<path d="M31.6667 5.00001H26.17C26.0049 4.7546 25.8269 4.51816 25.6367 4.29168L25.62 4.27168C24.395 2.84597 22.6724 1.94114 20.8033 1.74168C20.2725 1.64153 19.7275 1.64153 19.1967 1.74168C17.3276 1.94114 15.605 2.84597 14.38 4.27168L14.3633 4.29168C14.1732 4.51762 13.9951 4.75351 13.83 4.99835V5.00001H8.33333C7.00765 5.00134 5.73665 5.52855 4.79926 6.46594C3.86186 7.40334 3.33465 8.67434 3.33333 10V33.3333C3.33465 34.659 3.86186 35.93 4.79926 36.8674C5.73665 37.8048 7.00765 38.332 8.33333 38.3333H31.6667C32.9923 38.332 34.2633 37.8048 35.2007 36.8674C36.1381 35.93 36.6653 34.659 36.6667 33.3333V10C36.6653 8.67434 36.1381 7.40334 35.2007 6.46594C34.2633 5.52855 32.9923 5.00134 31.6667 5.00001ZM33.3333 33.3333C33.3333 33.7754 33.1577 34.1993 32.8452 34.5119C32.5326 34.8244 32.1087 35 31.6667 35H8.33333C7.8913 35 7.46738 34.8244 7.15482 34.5119C6.84226 34.1993 6.66666 33.7754 6.66666 33.3333V10C6.66666 9.55798 6.84226 9.13406 7.15482 8.8215C7.46738 8.50894 7.8913 8.33335 8.33333 8.33335H15.9167C16.1079 7.39144 16.6189 6.54462 17.3631 5.93636C18.1073 5.32811 19.0389 4.99584 20 4.99584C20.9611 4.99584 21.8927 5.32811 22.6369 5.93636C23.3811 6.54462 23.8921 7.39144 24.0833 8.33335H31.6667C32.1087 8.33335 32.5326 8.50894 32.8452 8.8215C33.1577 9.13406 33.3333 9.55798 33.3333 10V33.3333Z" fill="#3870CD"/>
</svg>
